<svg width="181" height="48" viewBox="0 0 181 48" fill="none" xmlns="http://www.w3.org/2000/svg">
<path d="M60.4321 37.2183C59.5702 37.2183 58.7823 37.0582 58.0681 36.7383C57.3786 36.3936 56.8367 35.8521 56.4428 35.1137C56.0488 34.3752 55.8517 33.4276 55.8517 32.2706V13.846L59.0285 12.0737V31.4583C59.0285 32.4676 59.1886 33.2551 59.5087 33.8213C59.8288 34.3628 60.4076 34.6337 61.2448 34.6337C61.491 34.6337 61.7865 34.6091 62.1313 34.5598C62.4762 34.486 62.8455 34.3997 63.2395 34.3013V36.7383C62.7717 36.9105 62.2915 37.0337 61.7989 37.1075C61.331 37.1813 60.8754 37.2183 60.4321 37.2183ZM52.084 21.1567V18.7198H63.2395V21.1567H52.084ZM74.7991 37.2183C73.0999 37.2183 71.5731 36.8245 70.2187 36.0367C68.8889 35.2244 67.8423 34.1044 67.0789 32.6767C66.3154 31.2491 65.9338 29.6245 65.9338 27.8029C65.9338 25.9813 66.3032 24.369 67.042 22.966C67.8053 21.5383 68.852 20.4306 70.1818 19.6429C71.5361 18.8306 73.0752 18.4244 74.7991 18.4244C76.5229 18.4244 78.0374 18.8306 79.3426 19.6429C80.6724 20.4306 81.7188 21.5383 82.4824 22.966C83.2457 24.369 83.6273 25.9813 83.6273 27.8029C83.6273 29.6245 83.2457 31.2491 82.4824 32.6767C81.7188 34.0798 80.6724 35.1875 79.3426 35.9998C78.0128 36.8121 76.4983 37.2183 74.7991 37.2183ZM74.7991 34.449C75.9564 34.449 76.9538 34.1782 77.7912 33.6367C78.6529 33.0705 79.3178 32.2951 79.7858 31.3106C80.2537 30.3013 80.4877 29.1321 80.4877 27.8029C80.4877 26.4491 80.2537 25.2797 79.7858 24.2952C79.3178 23.2859 78.6529 22.5105 77.7912 21.969C76.9538 21.4276 75.9564 21.1567 74.7991 21.1567C73.6171 21.1567 72.595 21.4397 71.7332 22.006C70.8712 22.5474 70.2063 23.3106 69.7385 24.2952C69.2705 25.2797 69.0367 26.4491 69.0367 27.8029C69.0367 29.1321 69.2705 30.3013 69.7385 31.3106C70.2063 32.2951 70.8712 33.0705 71.7332 33.6367C72.595 34.1782 73.6171 34.449 74.7991 34.449ZM95.5271 37.2183C93.8772 37.2183 92.4243 36.8121 91.1683 35.9998C89.9372 35.1629 88.9768 34.0305 88.2871 32.6029C87.5977 31.1753 87.2528 29.5752 87.2528 27.8029C87.2528 25.8829 87.6222 24.2213 88.361 22.8183C89.0998 21.4152 90.0971 20.3321 91.353 19.569C92.609 18.806 94.0004 18.4244 95.5271 18.4244C96.6846 18.4244 97.7189 18.6583 98.63 19.126C99.5413 19.569 100.305 20.1844 100.92 20.9721C101.561 21.7351 102.004 22.5967 102.25 23.5567L101.363 24.1475V11.1875H104.466V36.9229H101.363V31.4952L102.398 31.8275C102.078 32.8859 101.597 33.8213 100.957 34.6337C100.317 35.446 99.5413 36.086 98.63 36.5537C97.7189 36.9967 96.6846 37.2183 95.5271 37.2183ZM96.0443 34.3383C97.1524 34.3383 98.1252 34.0674 98.9624 33.526C99.7998 32.9597 100.452 32.1844 100.92 31.1998C101.388 30.2153 101.622 29.0828 101.622 27.8029C101.622 26.5229 101.388 25.3905 100.92 24.406C100.452 23.4214 99.7998 22.6582 98.9624 22.1167C98.1252 21.5505 97.1524 21.2675 96.0443 21.2675C94.9361 21.2675 93.9511 21.5505 93.0892 22.1167C92.2519 22.6582 91.587 23.4214 91.0945 24.406C90.6266 25.3905 90.3926 26.5229 90.3926 27.8029C90.3926 29.0828 90.6266 30.2153 91.0945 31.1998C91.587 32.1844 92.2519 32.9597 93.0892 33.526C93.9511 34.0674 94.9361 34.3383 96.0443 34.3383ZM117.798 37.2183C116.099 37.2183 114.572 36.8245 113.218 36.0367C111.888 35.2244 110.841 34.1044 110.078 32.6767C109.315 31.2491 108.933 29.6245 108.933 27.8029C108.933 25.9813 109.302 24.369 110.041 22.966C110.804 21.5383 111.851 20.4306 113.181 19.6429C114.535 18.8306 116.074 18.4244 117.798 18.4244C119.522 18.4244 121.036 18.8306 122.342 19.6429C123.671 20.4306 124.718 21.5383 125.481 22.966C126.245 24.369 126.626 25.9813 126.626 27.8029C126.626 29.6245 126.245 31.2491 125.481 32.6767C124.718 34.0798 123.671 35.1875 122.342 35.9998C121.012 36.8121 119.497 37.2183 117.798 37.2183ZM117.798 34.449C118.956 34.449 119.953 34.1782 120.79 33.6367C121.652 33.0705 122.317 32.2951 122.785 31.3106C123.253 30.3013 123.487 29.1321 123.487 27.8029C123.487 26.4491 123.253 25.2797 122.785 24.2952C122.317 23.2859 121.652 22.5105 120.79 21.969C119.953 21.4276 118.956 21.1567 117.798 21.1567C116.616 21.1567 115.594 21.4397 114.732 22.006C113.87 22.5474 113.205 23.3106 112.737 24.2952C112.27 25.2797 112.036 26.4491 112.036 27.8029C112.036 29.1321 112.27 30.3013 112.737 31.3106C113.205 32.2951 113.87 33.0705 114.732 33.6367C115.594 34.1782 116.616 34.449 117.798 34.449ZM138.665 36.9229L148.491 11.1875H151.077L160.902 36.9229H157.356L149.821 15.8398L142.248 36.9229H138.665ZM144.132 30.8675L145.13 27.9506H154.438L155.509 30.8675H144.132ZM167.513 37.2183C166.405 37.2183 165.506 36.8736 164.816 36.1844C164.127 35.4953 163.782 34.3997 163.782 32.8983V11.1875H166.885V32.3075C166.885 33.0214 167.032 33.5383 167.328 33.8583C167.623 34.1782 168.018 34.3383 168.51 34.3383C168.732 34.3383 168.978 34.3137 169.249 34.2644C169.52 34.2151 169.803 34.1413 170.098 34.0429V36.7013C169.68 36.8736 169.237 36.9967 168.769 37.0706C168.301 37.169 167.882 37.2183 167.513 37.2183ZM177.289 37.2183C176.18 37.2183 175.281 36.8736 174.592 36.1844C173.903 35.4953 173.558 34.3997 173.558 32.8983V11.1875H176.661V32.3075C176.661 33.0214 176.808 33.5383 177.104 33.8583C177.399 34.1782 177.793 34.3383 178.286 34.3383C178.507 34.3383 178.754 34.3137 179.025 34.2644C179.296 34.2151 179.579 34.1413 179.874 34.0429V36.7013C179.456 36.8736 179.012 36.9967 178.544 37.0706C178.077 37.169 177.658 37.2183 177.289 37.2183Z" fill="#29477C"/>
<path fill-rule="evenodd" clip-rule="evenodd" d="M20.3163 44.3078C31.537 44.3078 40.6327 35.216 40.6327 24.0001C40.6327 12.7841 31.537 3.69238 20.3163 3.69238C9.09562 3.69238 0 12.7841 0 24.0001C0 35.216 9.09562 44.3078 20.3163 44.3078ZM27.5002 16.8193C27.8818 16.4385 28.3989 16.2248 28.938 16.2252C29.4771 16.2255 29.9939 16.44 30.3749 16.8213C30.756 17.2026 30.9697 17.7196 30.9693 18.2585C30.9689 18.7974 30.7545 19.314 30.3729 19.6948L18.8881 31.1748L18.88 31.1829C18.6918 31.3721 18.4679 31.5222 18.2214 31.6249C17.9749 31.7273 17.7106 31.78 17.4436 31.78C17.1766 31.78 16.9123 31.7273 16.6658 31.6249C16.4193 31.5222 16.1955 31.3721 16.0072 31.1829L15.9991 31.1748L10.2597 25.4379C10.0657 25.2505 9.91093 25.0263 9.80446 24.7786C9.69798 24.5308 9.64193 24.2644 9.63958 23.9947C9.63725 23.7252 9.68865 23.4577 9.79081 23.2083C9.89296 22.9587 10.0438 22.7318 10.2346 22.5412C10.4253 22.3505 10.6521 22.1997 10.9018 22.0976C11.1515 21.9955 11.419 21.9442 11.6888 21.9464C11.9586 21.9488 12.2251 22.0048 12.473 22.1113C12.7209 22.2176 12.9451 22.3723 13.1325 22.5664L17.4436 26.8736L27.5002 16.8213V16.8193Z" fill="#518EF8"/>
<path fill-rule="evenodd" clip-rule="evenodd" d="M40.5631 25.7058L31.0022 17.9082L30.9479 17.9568C30.9627 18.0562 30.9702 18.1572 30.9702 18.2589C30.9699 18.7979 30.7553 19.3144 30.3739 19.6953L18.8891 31.1752L18.8809 31.1833C18.6927 31.3726 18.4689 31.5227 18.2224 31.6253C17.9759 31.7278 17.7115 31.7804 17.4445 31.7804C17.31 31.7804 17.1762 31.7671 17.0449 31.7407L29.8187 41.9553C35.7771 38.7984 39.9759 32.7648 40.5631 25.7058Z" fill="#296EE6"/>
</svg>
