<svg width="84" height="25" viewBox="0 0 84 25" fill="none" xmlns="http://www.w3.org/2000/svg">
<path d="M28.54 14.58H44.38V15.82H37.18V21.46H35.74V15.82H28.54V14.58ZM31.02 12.78V4.82H41.96V6.02H32.46V8.2H41.96V9.4H32.46V11.58H41.96V12.78H31.02ZM47.9727 5.02H59.1327V6.22H49.4327V10.58H59.1327V11.78H47.9727V5.02ZM45.5327 15.32V14.08H61.3727V15.32H54.1127V21.4H52.6927V15.32H45.5327ZM67.1147 12.44H74.2747V11.22C71.9347 11 70.3547 9.6 70.3547 7.68C70.3547 5.54 72.2547 4.04 74.9747 4.04C77.7547 4.04 79.7147 5.54 79.7147 7.68C79.7147 9.58 78.0947 10.98 75.7147 11.22V12.44H82.8947V13.64H67.1147V12.44ZM69.5147 16.1V14.96H80.3547V18.64H71.0347V20.1H80.9147V21.24H69.5747V17.54H78.9147V16.1H69.5147ZM71.7347 7.68C71.7347 9.06 73.0747 10.02 74.9747 10.02C76.9147 10.02 78.3147 9.06 78.3147 7.68C78.3147 6.28 76.9147 5.28 74.9747 5.28C73.0747 5.28 71.7347 6.28 71.7347 7.68Z" fill="#29477C"/>
<path fill-rule="evenodd" clip-rule="evenodd" d="M11 24C17.0753 24 22 19.0753 22 13C22 6.9247 17.0753 2 11 2C4.9247 2 0 6.9247 0 13C0 19.0753 4.9247 24 11 24ZM14.8896 9.1104C15.0962 8.90414 15.3762 8.78838 15.6681 8.78859C15.96 8.78879 16.2398 8.90495 16.4461 9.1115C16.6524 9.31805 16.7681 9.59808 16.7679 9.88998C16.7677 10.1819 16.6516 10.4617 16.445 10.668L10.2267 16.8863L10.2223 16.8907C10.1204 16.9932 9.9992 17.0745 9.86574 17.1301C9.73227 17.1856 9.58915 17.2141 9.4446 17.2141C9.30005 17.2141 9.15693 17.1856 9.02346 17.1301C8.89 17.0745 8.76882 16.9932 8.6669 16.8907L8.6625 16.8863L5.555 13.7788C5.44994 13.6773 5.36614 13.5559 5.30849 13.4217C5.25084 13.2875 5.22049 13.1432 5.21922 12.9971C5.21796 12.8511 5.24579 12.7062 5.3011 12.5711C5.35641 12.4359 5.43808 12.313 5.54137 12.2098C5.64465 12.1065 5.76746 12.0248 5.90265 11.9695C6.03784 11.9142 6.18268 11.8864 6.32874 11.8876C6.4748 11.8889 6.61914 11.9192 6.75334 11.9769C6.88755 12.0345 7.00893 12.1183 7.1104 12.2234L9.4446 14.5565L14.8896 9.1115V9.1104Z" fill="#518EF8"/>
<path fill-rule="evenodd" clip-rule="evenodd" d="M21.9621 13.9239L16.7855 9.7002L16.7561 9.72651C16.7641 9.78036 16.7682 9.83506 16.7682 9.89017C16.768 10.1821 16.6518 10.4619 16.4453 10.6682L10.227 16.8865L10.2226 16.8909C10.1207 16.9934 9.99949 17.0747 9.86603 17.1303C9.73256 17.1858 9.58944 17.2143 9.44489 17.2143C9.37205 17.2143 9.29958 17.2071 9.22852 17.1928L16.1447 22.7257C19.3708 21.0157 21.6442 17.7475 21.9621 13.9239Z" fill="#296EE6"/>
</svg>
