<svg width="90" height="33" viewBox="0 0 90 33" fill="none" xmlns="http://www.w3.org/2000/svg">
<path d="M42.0683 25.2292C41.4682 25.2292 40.9197 25.1191 40.4226 24.8992C39.9426 24.6622 39.5654 24.2899 39.2911 23.7822C39.0169 23.2745 38.8797 22.6231 38.8797 21.8276V9.1607L41.0911 7.94224V21.2692C41.0911 21.9631 41.2026 22.5045 41.4254 22.8938C41.6482 23.266 42.0512 23.4522 42.634 23.4522C42.8054 23.4522 43.0111 23.4354 43.2511 23.4015C43.4912 23.3507 43.7483 23.2914 44.0226 23.2238V24.8992C43.6969 25.0176 43.3626 25.1022 43.0197 25.153C42.694 25.2038 42.3768 25.2292 42.0683 25.2292ZM36.2568 14.1869V12.5115H44.0226V14.1869H36.2568ZM52.0696 25.2292C50.8867 25.2292 49.8238 24.9584 48.881 24.4169C47.9553 23.8584 47.2267 23.0884 46.6953 22.1069C46.1638 21.1254 45.8981 20.0084 45.8981 18.7561C45.8981 17.5037 46.1553 16.3953 46.6696 15.4307C47.201 14.4492 47.9296 13.6877 48.8553 13.1461C49.7981 12.5876 50.8695 12.3084 52.0696 12.3084C53.2695 12.3084 54.3238 12.5876 55.2324 13.1461C56.1582 13.6877 56.8866 14.4492 57.4181 15.4307C57.9495 16.3953 58.2152 17.5037 58.2152 18.7561C58.2152 20.0084 57.9495 21.1254 57.4181 22.1069C56.8866 23.0715 56.1582 23.833 55.2324 24.3915C54.3067 24.9499 53.2524 25.2292 52.0696 25.2292ZM52.0696 23.3253C52.8752 23.3253 53.5695 23.1391 54.1524 22.7669C54.7524 22.3776 55.2152 21.8445 55.541 21.1676C55.8667 20.4737 56.0296 19.6699 56.0296 18.7561C56.0296 17.8254 55.8667 17.0214 55.541 16.3445C55.2152 15.6507 54.7524 15.1176 54.1524 14.7453C53.5695 14.373 52.8752 14.1869 52.0696 14.1869C51.2467 14.1869 50.5352 14.3814 49.9353 14.7707C49.3352 15.143 48.8724 15.6677 48.5467 16.3445C48.2209 17.0214 48.0581 17.8254 48.0581 18.7561C48.0581 19.6699 48.2209 20.4737 48.5467 21.1676C48.8724 21.8445 49.3352 22.3776 49.9353 22.7669C50.5352 23.1391 51.2467 23.3253 52.0696 23.3253ZM66.499 25.2292C65.3505 25.2292 64.339 24.9499 63.4647 24.3915C62.6077 23.8161 61.9391 23.0376 61.459 22.0561C60.9791 21.0746 60.739 19.9745 60.739 18.7561C60.739 17.4361 60.9962 16.2938 61.5105 15.3292C62.0247 14.3645 62.719 13.6199 63.5933 13.0953C64.4676 12.5707 65.4362 12.3084 66.499 12.3084C67.3048 12.3084 68.0248 12.4692 68.659 12.7907C69.2934 13.0953 69.8248 13.5184 70.2533 14.0599C70.6991 14.5845 71.0076 15.1769 71.179 15.8369L70.5619 16.243V7.33301H72.7219V25.0261H70.5619V21.2945L71.2819 21.523C71.0591 22.2507 70.7248 22.8938 70.279 23.4522C69.8334 24.0107 69.2934 24.4507 68.659 24.7722C68.0248 25.0769 67.3048 25.2292 66.499 25.2292ZM66.859 23.2492C67.6305 23.2492 68.3076 23.063 68.8904 22.6907C69.4734 22.3014 69.9276 21.7684 70.2533 21.0915C70.5791 20.4146 70.7419 19.636 70.7419 18.7561C70.7419 17.8761 70.5791 17.0976 70.2533 16.4207C69.9276 15.7438 69.4734 15.2191 68.8904 14.8469C68.3076 14.4576 67.6305 14.263 66.859 14.263C66.0876 14.263 65.4019 14.4576 64.8019 14.8469C64.2191 15.2191 63.7562 15.7438 63.4133 16.4207C63.0876 17.0976 62.9247 17.8761 62.9247 18.7561C62.9247 19.636 63.0876 20.4146 63.4133 21.0915C63.7562 21.7684 64.2191 22.3014 64.8019 22.6907C65.4019 23.063 66.0876 23.2492 66.859 23.2492ZM82.0025 25.2292C80.8197 25.2292 79.7568 24.9584 78.814 24.4169C77.8883 23.8584 77.1597 23.0884 76.6283 22.1069C76.0969 21.1254 75.8311 20.0084 75.8311 18.7561C75.8311 17.5037 76.0883 16.3953 76.6026 15.4307C77.1339 14.4492 77.8625 13.6877 78.7883 13.1461C79.7311 12.5876 80.8026 12.3084 82.0025 12.3084C83.2025 12.3084 84.2568 12.5876 85.1654 13.1461C86.0911 13.6877 86.8197 14.4492 87.3511 15.4307C87.8825 16.3953 88.1483 17.5037 88.1483 18.7561C88.1483 20.0084 87.8825 21.1254 87.3511 22.1069C86.8197 23.0715 86.0911 23.833 85.1654 24.3915C84.2397 24.9499 83.1854 25.2292 82.0025 25.2292ZM82.0025 23.3253C82.8083 23.3253 83.5026 23.1391 84.0854 22.7669C84.6855 22.3776 85.1483 21.8445 85.474 21.1676C85.7997 20.4737 85.9626 19.6699 85.9626 18.7561C85.9626 17.8254 85.7997 17.0214 85.474 16.3445C85.1483 15.6507 84.6855 15.1176 84.0854 14.7453C83.5026 14.373 82.8083 14.1869 82.0025 14.1869C81.1797 14.1869 80.4683 14.3814 79.8683 14.7707C79.2682 15.143 78.8054 15.6677 78.4797 16.3445C78.154 17.0214 77.9911 17.8254 77.9911 18.7561C77.9911 19.6699 78.154 20.4737 78.4797 21.1676C78.8054 21.8445 79.2682 22.3776 79.8683 22.7669C80.4683 23.1391 81.1797 23.3253 82.0025 23.3253Z" fill="#29477C"/>
<path fill-rule="evenodd" clip-rule="evenodd" d="M14.1429 30.3674C21.954 30.3674 28.2857 24.1168 28.2857 16.4059C28.2857 8.69492 21.954 2.44434 14.1429 2.44434C6.33176 2.44434 0 8.69492 0 16.4059C0 24.1168 6.33176 30.3674 14.1429 30.3674ZM19.1438 11.4691C19.4094 11.2073 19.7694 11.0604 20.1447 11.0606C20.52 11.0609 20.8797 11.2083 21.145 11.4705C21.4102 11.7326 21.559 12.0881 21.5587 12.4585C21.5585 12.8291 21.4092 13.1842 21.1436 13.446L13.1486 21.3385L13.143 21.3441C13.0119 21.4742 12.8561 21.5774 12.6845 21.6479C12.5129 21.7184 12.3289 21.7545 12.1431 21.7545C11.9572 21.7545 11.7732 21.7184 11.6016 21.6479C11.43 21.5774 11.2742 21.4742 11.1432 21.3441L11.1375 21.3385L7.14214 17.3944C7.00707 17.2655 6.89932 17.1114 6.8252 16.9411C6.75108 16.7708 6.71206 16.5876 6.71043 16.4022C6.70881 16.2169 6.74459 16.033 6.8157 15.8615C6.88681 15.6899 6.99182 15.5339 7.12462 15.4029C7.25741 15.2718 7.41531 15.1681 7.58912 15.0979C7.76294 15.0277 7.94916 14.9925 8.13695 14.994C8.32474 14.9956 8.51032 15.0341 8.68287 15.1073C8.85542 15.1804 9.01148 15.2868 9.14194 15.4202L12.1431 18.3814L19.1438 11.4705V11.4691Z" fill="#518EF8"/>
<path fill-rule="evenodd" clip-rule="evenodd" d="M28.236 17.6724L21.5804 12.3115L21.5426 12.3449C21.553 12.4133 21.5582 12.4827 21.5581 12.5526C21.5579 12.9232 21.4086 13.2783 21.143 13.5401L13.148 21.4326L13.1423 21.4382C13.0113 21.5683 12.8555 21.6715 12.6839 21.742C12.5123 21.8125 12.3283 21.8487 12.1424 21.8487C12.0488 21.8487 11.9556 21.8395 11.8643 21.8214L20.7565 28.8439C24.9043 26.6735 27.8273 22.5254 28.236 17.6724Z" fill="#296EE6"/>
</svg>
